# xmcd
#
# Track frame offsets: 
#        150
#        14934
#        27908
#        42250
#        57679
#        73953
#        88570
#        106950
#        119330
#        134210
#        149051
#        162580
#        175385
#        188739
#        201438
#        214998
#        227993
#        242486
#        256014
#        269660
#
# Disc length: 3779 seconds
#
# Revision: 2
# Processed by: cddbd v1.5.2PL0 Copyright (c) Steve Scherf et al.
# Submitted via: ExactAudioCopy v0.99pb5
#
DISCID=4a0ec114
DTITLE=Various Artist - Gute Wahl (Schlager vom Herzen) - Vol. 02
DYEAR=2006
DGENRE=Schlager
TTITLE0=Angela Wiedl - Du bist Frieden
TTITLE1=Reiner Kristen - Das war Musik in allen Herzen
TTITLE2=Astrid and Freddy Breck - Du bist mein Leben
TTITLE3=Astrid Harzbecker - Liebesrosen
TTITLE4=Henry Valentino and Katrin Huss - Im Wagen vor mir (Die andere V
TTITLE4=ersion)
TTITLE5=Eberhard Hertel - Oh wie schoen, dass ich Dich habe
TTITLE6=Ricky King - La réve
TTITLE7=Die Lausbuben Flori and Martin - Dirndl, mach' Dei Fenster auf!
TTITLE8=Hoi! - Mehr als eine Nacht
TTITLE9=Marieke - Mein Zuhause ist der Norden
TTITLE10=Claudio de Bartolo - Sternstundenzeit
TTITLE11=Blechblos'n - So muss a jeder sein Packerl trag'n
TTITLE12=Stefan Mross - Heimwehmelodie
TTITLE13=Godewind - Wat mutt - datt mutt
TTITLE14=Johannes Kalpers - Ein Laecheln fuer die ganze Welt
TTITLE15=Rocco Granata - Buona sera ihr Freunde
TTITLE16=Sebastian Siegel - Das Kribbeln faengt wieder an
TTITLE17=Die Steigerburschen - Freunde der Nacht
TTITLE18=Max Zankl and Marianne - Ich nehm' jeden Tag als ein Geschenk
TTITLE19=Matthias Lenz - Flammen der Liebe
EXTD=
EXTT0=
EXTT1=
EXTT2=
EXTT3=
EXTT4=
EXTT5=
EXTT6=
EXTT7=
EXTT8=
EXTT9=
EXTT10=
EXTT11=
EXTT12=
EXTT13=
EXTT14=
EXTT15=
EXTT16=
EXTT17=
EXTT18=
EXTT19=
PLAYORDER=
